# xmcd
#
# Track frame offsets: 
#        150
#        11186
#        22375
#        33011
#        44538
#        63042
#        77692
#        96562
#        109545
#        118727
#        129533
#        144789
#
# Disc length: 2173 seconds
#
# Revision: 0
# Processed by: cddbd v1.5.2PL0 Copyright (c) Steve Scherf et al.
# Submitted via: ExactAudioCopy v1.0b1
#
DISCID=9d087b0c
DTITLE=Dailey and Vincent - Brothers Of The Highway
DYEAR=2013
DGENRE=Bluegrass
TTITLE0=Steel Drivin' Man
TTITLE1=Close By
TTITLE2=When I Stop Dreaming
TTITLE3=Back To Jackson County
TTITLE4=Brothers Of The Highway
TTITLE5=Tomorrow I'll Be Gone
TTITLE6=Hills Of Caroline
TTITLE7=Big River
TTITLE8=Howdy Neighbor Howdy
TTITLE9=Won't It Be Wonderful There
TTITLE10=Back To Hancock County
TTITLE11=Where Have You Been
EXTD=
EXTT0=
EXTT1=
EXTT2=
EXTT3=
EXTT4=
EXTT5=
EXTT6=
EXTT7=
EXTT8=
EXTT9=
EXTT10=
EXTT11=
PLAYORDER=
